<svg width="140" height="30" viewBox="0 0 140 30" fill="none" xmlns="http://www.w3.org/2000/svg">
<path d="M25.1051 13.1375C27.7195 10.5404 28.5775 7.16537 27.0216 5.59912C25.4657 4.03286 22.085 4.86851 19.4707 7.46559C16.8563 10.0627 15.9982 13.4377 17.5542 15.004C19.1101 16.5702 22.4907 15.7346 25.1051 13.1375Z" fill="#1F80FF"/>
<path d="M24.1705 25.0577C25.3418 23.8777 24.7722 21.4131 22.8982 19.5528C21.0242 17.6925 18.5555 17.141 17.3841 18.3209C16.2128 19.5009 16.7824 21.9656 18.6564 23.8259C20.5303 25.6862 22.9991 26.2377 24.1705 25.0577Z" fill="#4AA147"/>
<path d="M14.1268 15.0527C15.6827 13.4865 14.8247 10.1114 12.2103 7.51434C9.59595 4.91726 6.21528 4.08161 4.65938 5.64787C3.10347 7.21412 3.96153 10.5892 6.57589 13.1863C9.19026 15.7833 12.5709 16.619 14.1268 15.0527Z" fill="#CF2C91"/>
<path d="M13.0298 23.7306C14.9038 21.8703 15.4734 19.4057 14.3021 18.2257C13.1307 17.0457 10.6619 17.5972 8.78794 19.4575C6.91395 21.3179 6.34435 23.7825 7.51571 24.9625C8.68708 26.1425 11.1558 25.5909 13.0298 23.7306Z" fill="#F58220"/>
<path d="M47.7691 24.5796C47.7646 24.9301 47.6216 25.2646 47.3714 25.5101C47.1212 25.7557 46.7841 25.8923 46.4335 25.8902C46.0819 25.8861 45.7457 25.745 45.4964 25.497L39.8712 19.3895L37.883 21.2925V24.3895C37.883 24.7893 37.7242 25.1726 37.4415 25.4553C37.1589 25.7379 36.7755 25.8967 36.3758 25.8967C35.976 25.8967 35.5926 25.7379 35.31 25.4553C35.0273 25.1726 34.8685 24.7893 34.8685 24.3895V6.96471C34.8685 6.56497 35.0273 6.1816 35.31 5.89894C35.5926 5.61629 35.976 5.45749 36.3758 5.45749C36.7755 5.45749 37.1589 5.61629 37.4415 5.89894C37.7242 6.1816 37.883 6.56497 37.883 6.96471V17.7341L44.2749 11.3121C44.5567 11.0569 44.9177 10.9065 45.2972 10.8861C45.6588 10.8861 46.0057 11.0297 46.2615 11.2853C46.5173 11.5408 46.6612 11.8875 46.6616 12.2492C46.6605 12.6055 46.529 12.9491 46.292 13.2151L41.7179 17.6188L47.3719 23.6412C47.621 23.8906 47.7634 24.2271 47.7691 24.5796Z" fill="#414042"/>
<path d="M50.1316 6.68424C50.1433 6.28513 50.31 5.90629 50.5964 5.62811C50.8829 5.34994 51.2664 5.19434 51.6657 5.19434C52.065 5.19434 52.4485 5.34994 52.7349 5.62811C53.0214 5.90629 53.1881 6.28513 53.1998 6.68424C53.1881 7.08334 53.0214 7.46219 52.7349 7.74036C52.4485 8.01854 52.065 8.17414 51.6657 8.17414C51.2664 8.17414 50.8829 8.01854 50.5964 7.74036C50.31 7.46219 50.1433 7.08334 50.1316 6.68424ZM53.1722 12.4222V24.383C53.1722 24.5809 53.1333 24.7769 53.0575 24.9598C52.9818 25.1426 52.8708 25.3088 52.7308 25.4487C52.5908 25.5887 52.4247 25.6997 52.2418 25.7755C52.059 25.8512 51.863 25.8902 51.665 25.8902C51.4671 25.8902 51.2711 25.8512 51.0882 25.7755C50.9054 25.6997 50.7392 25.5887 50.5993 25.4487C50.4593 25.3088 50.3483 25.1426 50.2725 24.9598C50.1968 24.7769 50.1578 24.5809 50.1578 24.383V12.4222C50.1578 12.2242 50.1968 12.0282 50.2725 11.8454C50.3483 11.6625 50.4593 11.4964 50.5993 11.3564C50.7392 11.2164 50.9054 11.1054 51.0882 11.0297C51.2711 10.9539 51.4671 10.9149 51.665 10.9149C51.863 10.9149 52.059 10.9539 52.2418 11.0297C52.4247 11.1054 52.5908 11.2164 52.7308 11.3564C52.8708 11.4964 52.9818 11.6625 53.0575 11.8454C53.1333 12.0282 53.1722 12.2242 53.1722 12.4222Z" fill="#414042"/>
<path d="M66.2594 12.9408C66.4298 13.203 66.6526 13.5097 66.6526 13.9894C66.6526 14.6997 66.1126 15.127 65.4298 15.127C64.9763 15.127 64.549 14.9278 64.1191 14.3589C63.5516 13.6486 62.7561 13.1663 61.5909 13.1663C60.1794 13.1689 59.3301 13.8793 59.3301 14.9068C59.3301 15.6172 59.7233 16.2987 61.2331 16.7246L62.9946 17.2083C65.4101 17.8636 67.2279 18.9409 67.2279 21.3276C67.2279 24.3106 64.4153 25.8165 61.4612 25.8165C58.9893 25.8165 57.2567 24.7365 56.5175 23.5714C56.3759 23.3735 55.9211 22.8046 55.9211 22.1297C55.9211 21.5333 56.2907 20.9082 57.085 20.9082C57.7403 20.9082 58.0798 21.3013 58.3642 21.7312C59.0745 22.9252 60.2397 23.3223 61.4612 23.3223C63.1086 23.3223 64.245 22.6408 64.245 21.5045C64.245 20.6526 63.6486 20.0274 62.2279 19.629L60.3222 19.1008C57.5699 18.3341 56.3733 16.857 56.3733 14.9251C56.3733 12.2541 58.7875 10.7206 61.5437 10.7206C63.5883 10.7259 65.3498 11.549 66.2594 12.9408Z" fill="#414042"/>
<path d="M79.5606 12.9408C79.731 13.203 79.9538 13.5097 79.9538 13.9894C79.9538 14.6997 79.4138 15.127 78.7323 15.127C78.2775 15.127 77.8515 14.9278 77.4217 14.3589C76.8528 13.6486 76.0573 13.1663 74.8921 13.1663C73.4727 13.1663 72.6195 13.8766 72.6195 14.8989C72.6195 15.6093 73.0127 16.2908 74.5239 16.7168L76.2853 17.2004C78.6995 17.8557 80.5174 18.933 80.5174 21.3197C80.5174 24.3027 77.7048 25.8086 74.7506 25.8086C72.2788 25.8086 70.5461 24.7286 69.8069 23.5635C69.6654 23.3656 69.2106 22.7968 69.2106 22.1218C69.2106 21.5255 69.5802 20.9003 70.3757 20.9003C71.031 20.9003 71.3705 21.2935 71.6536 21.7234C72.3639 22.9174 73.5291 23.3145 74.7506 23.3145C76.3981 23.3145 77.5344 22.6329 77.5344 21.4966C77.5344 20.6447 76.938 20.0196 75.5173 19.6211L73.6221 19.1008C70.8698 18.3341 69.6732 16.857 69.6732 14.9251C69.6732 12.2541 72.0874 10.7206 74.8437 10.7206C76.8909 10.7259 78.6523 11.549 79.5606 12.9408Z" fill="#414042"/>
<path d="M92.8735 7.13619C92.878 7.28297 92.8524 7.42913 92.7983 7.56564C92.7442 7.70215 92.6627 7.82612 92.5588 7.9299C92.4549 8.03368 92.3308 8.11506 92.1942 8.16903C92.0576 8.22299 91.9115 8.2484 91.7647 8.24367C91.5091 8.24367 91.1408 8.13096 90.686 7.96057C90.2928 7.79019 89.918 7.61981 89.3505 7.61981C87.7594 7.61981 87.2535 8.81248 87.2535 9.97894V10.9436H90.0949C90.8328 10.9436 91.344 11.4259 91.344 12.1362C91.344 12.8754 90.8328 13.3577 90.0949 13.3577H87.2483V24.3814C87.2483 24.777 87.0911 25.1564 86.8114 25.4361C86.5317 25.7158 86.1523 25.8729 85.7568 25.8729C85.3612 25.8729 84.9818 25.7158 84.7021 25.4361C84.4224 25.1564 84.2653 24.777 84.2653 24.3814V13.3577H83.3269C82.589 13.3577 82.1053 12.8754 82.1053 12.1362C82.1053 11.4259 82.589 10.9436 83.3269 10.9436H84.2653V9.86361C84.2653 5.97104 87.1342 5.06277 88.9835 5.06277C90.2627 5.06277 91.3427 5.40354 92.1094 5.94352C92.5891 6.25545 92.8735 6.62504 92.8735 7.13619ZM97.3611 6.93697V24.3526C97.3611 24.7524 97.2023 25.1357 96.9196 25.4184C96.6369 25.701 96.2536 25.8598 95.8538 25.8598C95.4541 25.8598 95.0707 25.701 94.7881 25.4184C94.5054 25.1357 94.3466 24.7524 94.3466 24.3526V6.93697C94.3466 6.53723 94.5054 6.15387 94.7881 5.87121C95.0707 5.58855 95.4541 5.42975 95.8538 5.42975C96.2536 5.42975 96.6369 5.58855 96.9196 5.87121C97.2023 6.15387 97.3611 6.53723 97.3611 6.93697Z" fill="#414042"/>
<path d="M115.103 18.4368C115.103 23.5221 110.87 25.9939 107.602 25.9939C104.335 25.9939 100.132 23.5221 100.132 18.4368C100.132 13.3804 104.336 10.8522 107.602 10.8522C110.868 10.8522 115.103 13.3765 115.103 18.4368ZM103.113 18.4368C103.113 21.6479 105.415 23.3805 107.602 23.3805C109.818 23.3805 112.12 21.6479 112.12 18.4368C112.12 15.1943 109.818 13.4565 107.602 13.4565C105.415 13.4565 103.113 15.1943 103.113 18.4368Z" fill="#414042"/>
<path d="M138.192 12.2769C138.192 12.5037 138.078 12.7029 137.992 12.9585L133.987 24.6349C133.731 25.3727 133.192 25.7712 132.566 25.7712C131.911 25.7712 131.401 25.378 131.089 24.6349L127.248 15.2599L123.384 24.6349C123.101 25.3727 122.561 25.7712 121.942 25.7712C121.287 25.7712 120.777 25.378 120.522 24.6349L116.515 12.9585C116.43 12.7029 116.316 12.5037 116.316 12.2769C116.314 12.0899 116.35 11.9044 116.42 11.7312C116.491 11.558 116.596 11.4007 116.728 11.2684C116.86 11.1362 117.018 11.0316 117.191 10.9608C117.364 10.89 117.55 10.8545 117.737 10.8562C118.275 10.8562 118.844 11.197 119.014 11.6793L122.136 21.3386L125.89 11.7933C125.985 11.5118 126.169 11.2686 126.414 11.0998C126.658 10.931 126.951 10.8456 127.248 10.8562C127.903 10.8562 128.357 11.197 128.612 11.7933L132.362 21.3386L135.493 11.6754C135.635 11.1642 136.231 10.8523 136.771 10.8523C136.958 10.8505 137.144 10.8862 137.318 10.9572C137.491 11.0283 137.648 11.1332 137.781 11.2659C137.913 11.3986 138.018 11.5564 138.088 11.73C138.159 11.9036 138.194 12.0896 138.192 12.2769Z" fill="#414042"/>
</svg>
